<svg width="12" height="17" viewBox="0 0 12 17" fill="none" xmlns="http://www.w3.org/2000/svg">
<rect y="0.601562" width="12" height="16" rx="6" fill="#F3EBFF"/>
<path fill-rule="evenodd" clip-rule="evenodd" d="M6 4.10156C6.55228 4.10156 7 4.54928 7 5.10156C7 5.65385 6.55228 6.10156 6 6.10156C5.44772 6.10156 5 5.65385 5 5.10156C5 4.54928 5.44772 4.10156 6 4.10156ZM6 7.60156C6.55228 7.60156 7 8.04928 7 8.60156C7 9.15385 6.55228 9.60156 6 9.60156C5.44772 9.60156 5 9.15385 5 8.60156C5 8.04928 5.44772 7.60156 6 7.60156ZM6 11.1016C6.55228 11.1016 7 11.5493 7 12.1016C7 12.6538 6.55228 13.1016 6 13.1016C5.44771 13.1016 5 12.6538 5 12.1016C5 11.5493 5.44771 11.1016 6 11.1016Z" fill="#110F14"/>
</svg>
