<svg width="45" height="25" viewBox="0 0 45 25" fill="none" xmlns="http://www.w3.org/2000/svg">
<path d="M21.6071 10.566C21.9478 10.7611 22.2309 11.0426 22.4278 11.3822C22.6247 11.7219 22.7284 12.1074 22.7284 12.5C22.7284 12.8926 22.6247 13.2781 22.4278 13.6178C22.2309 13.9574 21.9478 14.2389 21.6071 14.434L3.92615 24.693C2.48122 25.5322 0.5 24.5735 0.5 22.759V2.24099C0.5 0.42649 2.48122 -0.532167 3.92615 0.307005L21.6071 10.566Z" fill="#FCFAFF"/>
<path d="M43.8356 10.566C44.1763 10.7611 44.4594 11.0426 44.6563 11.3822C44.8532 11.7219 44.9569 12.1074 44.9569 12.5C44.9569 12.8926 44.8532 13.2781 44.6563 13.6178C44.4594 13.9574 44.1763 14.2389 43.8356 14.434L26.1547 24.693C24.7097 25.5322 22.7285 24.5735 22.7285 22.759V2.24099C22.7285 0.42649 24.7097 -0.532167 26.1547 0.307005L43.8356 10.566Z" fill="#FCFAFF"/>
</svg>
