<svg width="26" height="25" viewBox="0 0 26 25" fill="none" xmlns="http://www.w3.org/2000/svg">
<path fill-rule="evenodd" clip-rule="evenodd" d="M2.34821 0H8.47321C9.49395 0 10.3214 0.827474 10.3214 1.84821V23.1518C10.3214 24.1725 9.49395 25 8.47321 25H2.34821C1.32747 25 0.5 24.1725 0.5 23.1518V1.84821C0.5 0.827474 1.32747 0 2.34821 0ZM17.5268 0H23.6518C24.6725 0 25.5 0.827474 25.5 1.84821V23.1518C25.5 24.1725 24.6725 25 23.6518 25H17.5268C16.506 25 15.6786 24.1725 15.6786 23.1518V1.84821C15.6786 0.827474 16.506 0 17.5268 0Z" fill="#FCFAFF"/>
</svg>
