<svg width="45" height="25" viewBox="0 0 45 25" fill="none" xmlns="http://www.w3.org/2000/svg">
<path d="M23.3929 10.566C23.0522 10.7611 22.7691 11.0426 22.5722 11.3822C22.3753 11.7219 22.2716 12.1074 22.2716 12.5C22.2716 12.8926 22.3753 13.2781 22.5722 13.6178C22.7691 13.9574 23.0522 14.2389 23.3929 14.434L41.0738 24.693C42.5188 25.5322 44.5 24.5735 44.5 22.759V2.24099C44.5 0.42649 42.5188 -0.532167 41.0738 0.307005L23.3929 10.566Z" fill="#FCFAFF"/>
<path d="M1.16438 10.566C0.823704 10.7611 0.540594 11.0426 0.3437 11.3822C0.146807 11.7219 0.0431156 12.1074 0.0431156 12.5C0.0431156 12.8926 0.146807 13.2781 0.3437 13.6178C0.540594 13.9574 0.823704 14.2389 1.16438 14.434L18.8453 24.693C20.2903 25.5322 22.2715 24.5735 22.2715 22.759V2.24099C22.2715 0.42649 20.2903 -0.532167 18.8453 0.307005L1.16438 10.566Z" fill="#FCFAFF"/>
</svg>
